# xmcd
#
# Track frame offsets:
#	150
#	31932
#	61444
#	106328
#	131947
#	146496
#	156954
#	201094
#	227122
#	243495
#	259558
#
# Disc length: 3742 seconds
#
# Revision: 0
# Processed by: cddbd v1.5.2PL0 Copyright (c) Steve Scherf et al.
# Submitted via: EasyCDDAExtractor 10.0.2.1
#
DISCID=9b0e9c0b
DTITLE=Saxon - The Garage Glasgow 19-05-07 Master Disc 2
DYEAR=2007
DGENRE=Hard Rock
TTITLE0=Crusader
TTITLE1=I've Got To Rock (To Stay Alive)
TTITLE2=Atila The Hun
TTITLE3=747 (Strangers In The Night)
TTITLE4=And The Bands Played On
TTITLE5=Doug's Solo
TTITLE6=Wheels Of Steel
TTITLE7=Never Surrender
TTITLE8=Heavy Metal Thunder
TTITLE9=Denim and Leather
TTITLE10=Ashes To Ashes
EXTD=
EXTT0=
EXTT1=
EXTT2=
EXTT3=
EXTT4=
EXTT5=
EXTT6=
EXTT7=
EXTT8=
EXTT9=
EXTT10=
PLAYORDER=
